# Blender v2.76 (sub 0) OBJ File: ''
# www.blender.org
mtllib Rail straight.mtl
o Cylinder.002_Cylinder.003
v 0.425922 1.002060 -0.495398
v 0.425922 1.002060 0.495398
v 0.442781 0.996946 -0.495398
v 0.442781 0.996946 0.495398
v 0.458319 0.988641 -0.495398
v 0.458319 0.988641 0.495398
v 0.471937 0.977465 -0.495398
v 0.471937 0.977465 0.495398
v 0.483114 0.963846 -0.495398
v 0.483114 0.963846 0.495398
v 0.491419 0.948309 -0.495398
v 0.491419 0.948309 0.495398
v 0.496533 0.931450 -0.495398
v 0.496533 0.931450 0.495398
v 0.498260 0.913917 -0.495398
v 0.498260 0.913917 0.495398
v 0.496533 0.896384 -0.495398
v 0.496533 0.896384 0.495398
v 0.491419 0.879525 -0.495398
v 0.491419 0.879525 0.495398
v 0.483114 0.863988 -0.495398
v 0.483114 0.863988 0.495398
v 0.471937 0.850369 -0.495398
v 0.471937 0.850369 0.495398
v 0.458319 0.839193 -0.495398
v 0.458319 0.839193 0.495398
v 0.442781 0.830888 -0.495398
v 0.442781 0.830888 0.495398
v 0.425922 0.825774 -0.495398
v 0.425922 0.825774 0.495398
v 0.390857 0.825774 -0.495398
v 0.390857 0.825774 0.495398
v 0.373998 0.830888 -0.495398
v 0.373998 0.830888 0.495398
v 0.358461 0.839193 -0.495398
v 0.358461 0.839193 0.495398
v 0.344842 0.850369 -0.495398
v 0.344842 0.850369 0.495398
v 0.333665 0.863988 -0.495398
v 0.333665 0.863988 0.495398
v 0.325361 0.879525 -0.495398
v 0.325361 0.879525 0.495398
v 0.320246 0.896384 -0.495398
v 0.320246 0.896384 0.495398
v 0.318520 0.913917 -0.495398
v 0.318520 0.913917 0.495398
v 0.320247 0.931450 -0.495398
v 0.320247 0.931450 0.495398
v 0.325361 0.948309 -0.495398
v 0.325361 0.948309 0.495398
v 0.333666 0.963846 -0.495398
v 0.333666 0.963846 0.495398
v 0.344842 0.977465 -0.495398
v 0.344842 0.977465 0.495398
v 0.358461 0.988641 -0.495398
v 0.358461 0.988641 0.495398
v 0.373998 0.996946 -0.495398
v 0.373998 0.996946 0.495398
v 0.390857 1.002060 -0.495398
v 0.390857 1.002060 0.495398
v 0.408390 1.003787 -0.495398
v 0.408390 1.003787 0.495398
v 0.390857 1.002060 -0.495398
v 0.390857 1.002060 0.495398
v 0.373998 0.996946 -0.495398
v 0.373998 0.996946 0.495398
v 0.358461 0.988641 -0.495398
v 0.358461 0.988641 0.495398
v 0.344842 0.977465 -0.495398
v 0.344842 0.977465 0.495398
v 0.333665 0.963846 -0.495398
v 0.333665 0.963846 0.495398
v 0.325361 0.948309 -0.495398
v 0.325361 0.948309 0.495398
v 0.320247 0.931450 -0.495398
v 0.320247 0.931450 0.495398
v 0.318520 0.913917 -0.495398
v 0.318520 0.913917 0.495398
v 0.320247 0.896384 -0.495398
v 0.320247 0.896384 0.495398
v 0.325361 0.879525 -0.495398
v 0.325361 0.879525 0.495398
v 0.333665 0.863988 -0.495398
v 0.333665 0.863988 0.495398
v 0.344842 0.850369 -0.495398
v 0.344842 0.850369 0.495398
v 0.358461 0.839193 -0.495398
v 0.358461 0.839193 0.495398
v 0.373998 0.830888 -0.495398
v 0.373998 0.830888 0.495398
v 0.390857 0.825774 -0.495398
v 0.390857 0.825774 0.495398
v 0.408390 0.824047 -0.495398
v 0.408390 0.824047 0.495398
v 0.425922 0.825774 -0.495398
v 0.425922 0.825774 0.495398
v 0.442781 0.830888 -0.495398
v 0.442781 0.830888 0.495398
v 0.458319 0.839193 -0.495398
v 0.458319 0.839193 0.495398
v 0.471937 0.850369 -0.495398
v 0.471937 0.850369 0.495398
v 0.483114 0.863988 -0.495398
v 0.483114 0.863988 0.495398
v 0.491419 0.879525 -0.495398
v 0.491419 0.879525 0.495398
v 0.496533 0.896384 -0.495398
v 0.496533 0.896384 0.495398
v 0.498260 0.913917 -0.495398
v 0.498260 0.913917 0.495398
v 0.496533 0.931450 -0.495398
v 0.496533 0.931450 0.495398
v 0.491419 0.948309 -0.495398
v 0.491419 0.948309 0.495398
v 0.483114 0.963846 -0.495398
v 0.483114 0.963846 0.495398
v 0.471937 0.977465 -0.495398
v 0.471937 0.977465 0.495398
v 0.458319 0.988641 -0.495398
v 0.458319 0.988641 0.495398
v 0.442781 0.996946 -0.495398
v 0.442781 0.996946 0.495398
v 0.425922 1.002060 -0.495398
v 0.425922 1.002060 0.495398
vn 0.098000 0.995200 -0.000000
vn 0.290300 0.956900 -0.000000
vn 0.471400 0.881900 -0.000000
vn 0.634400 0.773000 -0.000000
vn 0.773000 0.634400 -0.000000
vn 0.881900 0.471400 -0.000000
vn 0.956900 0.290300 0.000000
vn 0.995200 0.098000 -0.000000
vn 0.995200 -0.098000 0.000000
vn 0.956900 -0.290300 0.000000
vn 0.881900 -0.471400 0.000000
vn 0.773000 -0.634400 0.000000
vn 0.634400 -0.773000 0.000000
vn 0.471400 -0.881900 0.000000
vn 0.290300 -0.956900 0.000000
vn 0.098000 -0.995200 0.000000
vn -0.098000 -0.995200 0.000000
vn -0.290300 -0.956900 0.000000
vn -0.471400 -0.881900 0.000000
vn -0.634400 -0.773000 0.000000
vn -0.773000 -0.634400 0.000000
vn -0.881900 -0.471400 0.000000
vn -0.956900 -0.290300 0.000000
vn -0.995200 -0.098000 0.000000
vn -0.995200 0.098000 -0.000000
vn -0.956900 0.290300 0.000000
vn -0.881900 0.471400 0.000000
vn -0.773000 0.634400 -0.000000
vn -0.634400 0.773000 -0.000000
vn -0.471400 0.881900 -0.000000
vn -0.000000 0.000000 1.000000
vn -0.098000 0.995200 -0.000000
vn -0.290300 0.956900 -0.000000
vn 0.000000 0.000000 -1.000000
usemtl None
s off
f 61//1 62//1 2//1 1//1
f 1//2 2//2 4//2 3//2
f 3//3 4//3 6//3 5//3
f 5//4 6//4 8//4 7//4
f 7//5 8//5 10//5 9//5
f 9//6 10//6 12//6 11//6
f 11//7 12//7 14//7 13//7
f 13//8 14//8 16//8 15//8
f 15//9 16//9 18//9 17//9
f 17//10 18//10 20//10 19//10
f 19//11 20//11 22//11 21//11
f 21//12 22//12 24//12 23//12
f 23//13 24//13 26//13 25//13
f 25//14 26//14 28//14 27//14
f 27//15 28//15 30//15 29//15
f 29//16 30//16 94//16 93//16
f 93//17 94//17 32//17 31//17
f 31//18 32//18 34//18 33//18
f 33//19 34//19 36//19 35//19
f 35//20 36//20 38//20 37//20
f 37//21 38//21 40//21 39//21
f 39//22 40//22 42//22 41//22
f 41//23 42//23 44//23 43//23
f 43//24 44//24 46//24 45//24
f 45//25 46//25 48//25 47//25
f 47//26 48//26 50//26 49//26
f 49//27 50//27 52//27 51//27
f 51//28 52//28 54//28 53//28
f 53//29 54//29 56//29 55//29
f 55//30 56//30 58//30 57//30
f 2//31 62//31 60//31 58//31 56//31 54//31 52//31 50//31 48//31 46//31 44//31 42//31 40//31 38//31 36//31 34//31 32//31 94//31 30//31 28//31 26//31 24//31 22//31 20//31 18//31 16//31 14//31 12//31 10//31 8//31 6//31 4//31
f 59//32 60//32 62//32 61//32
f 57//33 58//33 60//33 59//33
f 61//34 1//34 3//34 5//34 7//34 9//34 11//34 13//34 15//34 17//34 19//34 21//34 23//34 25//34 27//34 29//34 93//34 31//34 33//34 35//34 37//34 39//34 41//34 43//34 45//34 47//34 49//34 51//34 53//34 55//34 57//34 59//34
f 61//32 63//32 64//32 62//32
f 63//33 65//33 66//33 64//33
f 65//30 67//30 68//30 66//30
f 67//29 69//29 70//29 68//29
f 69//28 71//28 72//28 70//28
f 71//27 73//27 74//27 72//27
f 73//26 75//26 76//26 74//26
f 75//25 77//25 78//25 76//25
f 77//24 79//24 80//24 78//24
f 79//23 81//23 82//23 80//23
f 81//22 83//22 84//22 82//22
f 83//21 85//21 86//21 84//21
f 85//20 87//20 88//20 86//20
f 87//19 89//19 90//19 88//19
f 89//18 91//18 92//18 90//18
f 91//17 93//17 94//17 92//17
f 93//16 95//16 96//16 94//16
f 95//15 97//15 98//15 96//15
f 97//14 99//14 100//14 98//14
f 99//13 101//13 102//13 100//13
f 101//12 103//12 104//12 102//12
f 103//11 105//11 106//11 104//11
f 105//10 107//10 108//10 106//10
f 107//9 109//9 110//9 108//9
f 109//8 111//8 112//8 110//8
f 111//7 113//7 114//7 112//7
f 113//6 115//6 116//6 114//6
f 115//5 117//5 118//5 116//5
f 117//4 119//4 120//4 118//4
f 119//3 121//3 122//3 120//3
f 64//31 66//31 68//31 70//31 72//31 74//31 76//31 78//31 80//31 82//31 84//31 86//31 88//31 90//31 92//31 94//31 96//31 98//31 100//31 102//31 104//31 106//31 108//31 110//31 112//31 114//31 116//31 118//31 120//31 122//31 124//31 62//31
f 123//1 61//1 62//1 124//1
f 121//2 123//2 124//2 122//2
f 61//34 123//34 121//34 119//34 117//34 115//34 113//34 111//34 109//34 107//34 105//34 103//34 101//34 99//34 97//34 95//34 93//34 91//34 89//34 87//34 85//34 83//34 81//34 79//34 77//34 75//34 73//34 71//34 69//34 67//34 65//34 63//34
o Cylinder.001_Cylinder.002
v -0.392931 1.002060 -0.495398
v -0.392931 1.002060 0.495398
v -0.376072 0.996946 -0.495398
v -0.376072 0.996946 0.495398
v -0.360535 0.988641 -0.495398
v -0.360535 0.988641 0.495398
v -0.346916 0.977465 -0.495398
v -0.346916 0.977465 0.495398
v -0.335739 0.963846 -0.495398
v -0.335739 0.963846 0.495398
v -0.327435 0.948309 -0.495398
v -0.327435 0.948309 0.495398
v -0.322320 0.931450 -0.495398
v -0.322320 0.931450 0.495398
v -0.320594 0.913917 -0.495398
v -0.320594 0.913917 0.495398
v -0.322320 0.896384 -0.495398
v -0.322320 0.896384 0.495398
v -0.327435 0.879525 -0.495398
v -0.327435 0.879525 0.495398
v -0.335739 0.863988 -0.495398
v -0.335739 0.863988 0.495398
v -0.346916 0.850369 -0.495398
v -0.346916 0.850369 0.495398
v -0.360535 0.839193 -0.495398
v -0.360535 0.839193 0.495398
v -0.376072 0.830888 -0.495398
v -0.376072 0.830888 0.495398
v -0.392931 0.825774 -0.495398
v -0.392931 0.825774 0.495398
v -0.427996 0.825774 -0.495398
v -0.427996 0.825774 0.495398
v -0.444855 0.830888 -0.495398
v -0.444855 0.830888 0.495398
v -0.460393 0.839193 -0.495398
v -0.460393 0.839193 0.495398
v -0.474011 0.850369 -0.495398
v -0.474011 0.850369 0.495398
v -0.485188 0.863988 -0.495398
v -0.485188 0.863988 0.495398
v -0.493493 0.879525 -0.495398
v -0.493493 0.879525 0.495398
v -0.498607 0.896384 -0.495398
v -0.498607 0.896384 0.495398
v -0.500334 0.913917 -0.495398
v -0.500334 0.913917 0.495398
v -0.498607 0.931450 -0.495398
v -0.498607 0.931450 0.495398
v -0.493493 0.948309 -0.495398
v -0.493493 0.948309 0.495398
v -0.485188 0.963846 -0.495398
v -0.485188 0.963846 0.495398
v -0.474011 0.977465 -0.495398
v -0.474011 0.977465 0.495398
v -0.460393 0.988641 -0.495398
v -0.460393 0.988641 0.495398
v -0.444855 0.996946 -0.495398
v -0.444855 0.996946 0.495398
v -0.427996 1.002060 -0.495398
v -0.427996 1.002060 0.495398
v -0.410464 1.003787 -0.495398
v -0.410464 1.003787 0.495398
v -0.427996 1.002060 -0.495398
v -0.427996 1.002060 0.495398
v -0.444855 0.996946 -0.495398
v -0.444855 0.996946 0.495398
v -0.460393 0.988641 -0.495398
v -0.460393 0.988641 0.495398
v -0.474011 0.977465 -0.495398
v -0.474011 0.977465 0.495398
v -0.485188 0.963846 -0.495398
v -0.485188 0.963846 0.495398
v -0.493493 0.948309 -0.495398
v -0.493493 0.948309 0.495398
v -0.498607 0.931450 -0.495398
v -0.498607 0.931450 0.495398
v -0.500334 0.913917 -0.495398
v -0.500334 0.913917 0.495398
v -0.498607 0.896384 -0.495398
v -0.498607 0.896384 0.495398
v -0.493493 0.879525 -0.495398
v -0.493493 0.879525 0.495398
v -0.485188 0.863988 -0.495398
v -0.485188 0.863988 0.495398
v -0.474011 0.850369 -0.495398
v -0.474011 0.850369 0.495398
v -0.460393 0.839193 -0.495398
v -0.460393 0.839193 0.495398
v -0.444855 0.830888 -0.495398
v -0.444855 0.830888 0.495398
v -0.427996 0.825774 -0.495398
v -0.427996 0.825774 0.495398
v -0.410464 0.824047 -0.495398
v -0.410464 0.824047 0.495398
v -0.392931 0.825774 -0.495398
v -0.392931 0.825774 0.495398
v -0.376072 0.830888 -0.495398
v -0.376072 0.830888 0.495398
v -0.360534 0.839193 -0.495398
v -0.360534 0.839193 0.495398
v -0.346916 0.850369 -0.495398
v -0.346916 0.850369 0.495398
v -0.335739 0.863988 -0.495398
v -0.335739 0.863988 0.495398
v -0.327435 0.879525 -0.495398
v -0.327435 0.879525 0.495398
v -0.322320 0.896384 -0.495398
v -0.322320 0.896384 0.495398
v -0.320594 0.913917 -0.495398
v -0.320594 0.913917 0.495398
v -0.322320 0.931450 -0.495398
v -0.322320 0.931450 0.495398
v -0.327435 0.948309 -0.495398
v -0.327435 0.948309 0.495398
v -0.335739 0.963846 -0.495398
v -0.335739 0.963846 0.495398
v -0.346916 0.977465 -0.495398
v -0.346916 0.977465 0.495398
v -0.360535 0.988641 -0.495398
v -0.360535 0.988641 0.495398
v -0.376072 0.996946 -0.495398
v -0.376072 0.996946 0.495398
v -0.392931 1.002060 -0.495398
v -0.392931 1.002060 0.495398
vn 0.098000 0.995200 -0.000000
vn 0.290300 0.956900 -0.000000
vn 0.471400 0.881900 -0.000000
vn 0.634400 0.773000 -0.000000
vn 0.773000 0.634400 -0.000000
vn 0.881900 0.471400 -0.000000
vn 0.956900 0.290300 0.000000
vn 0.995200 0.098000 -0.000000
vn 0.995200 -0.098000 0.000000
vn 0.956900 -0.290300 0.000000
vn 0.881900 -0.471400 0.000000
vn 0.773000 -0.634400 0.000000
vn 0.634400 -0.773000 0.000000
vn 0.471400 -0.881900 0.000000
vn 0.290300 -0.956900 0.000000
vn 0.098000 -0.995200 0.000000
vn -0.098000 -0.995200 0.000000
vn -0.290300 -0.956900 0.000000
vn -0.471400 -0.881900 0.000000
vn -0.634400 -0.773000 0.000000
vn -0.773000 -0.634400 0.000000
vn -0.881900 -0.471400 0.000000
vn -0.956900 -0.290300 0.000000
vn -0.995200 -0.098000 0.000000
vn -0.995200 0.098000 -0.000000
vn -0.956900 0.290300 0.000000
vn -0.881900 0.471400 0.000000
vn -0.773000 0.634400 -0.000000
vn -0.634400 0.773000 -0.000000
vn -0.471400 0.881900 -0.000000
vn -0.000000 0.000000 1.000000
vn -0.098000 0.995200 -0.000000
vn -0.290300 0.956900 -0.000000
vn 0.000000 0.000000 -1.000000
usemtl None
s off
f 185//35 186//35 126//35 125//35
f 125//36 126//36 128//36 127//36
f 127//37 128//37 130//37 129//37
f 129//38 130//38 132//38 131//38
f 131//39 132//39 134//39 133//39
f 133//40 134//40 136//40 135//40
f 135//41 136//41 138//41 137//41
f 137//42 138//42 140//42 139//42
f 139//43 140//43 142//43 141//43
f 141//44 142//44 144//44 143//44
f 143//45 144//45 146//45 145//45
f 145//46 146//46 148//46 147//46
f 147//47 148//47 150//47 149//47
f 149//48 150//48 152//48 151//48
f 151//49 152//49 154//49 153//49
f 153//50 154//50 218//50 217//50
f 217//51 218//51 156//51 155//51
f 155//52 156//52 158//52 157//52
f 157//53 158//53 160//53 159//53
f 159//54 160//54 162//54 161//54
f 161//55 162//55 164//55 163//55
f 163//56 164//56 166//56 165//56
f 165//57 166//57 168//57 167//57
f 167//58 168//58 170//58 169//58
f 169//59 170//59 172//59 171//59
f 171//60 172//60 174//60 173//60
f 173//61 174//61 176//61 175//61
f 175//62 176//62 178//62 177//62
f 177//63 178//63 180//63 179//63
f 179//64 180//64 182//64 181//64
f 126//65 186//65 184//65 182//65 180//65 178//65 176//65 174//65 172//65 170//65 168//65 166//65 164//65 162//65 160//65 158//65 156//65 218//65 154//65 152//65 150//65 148//65 146//65 144//65 142//65 140//65 138//65 136//65 134//65 132//65 130//65 128//65
f 183//66 184//66 186//66 185//66
f 181//67 182//67 184//67 183//67
f 185//68 125//68 127//68 129//68 131//68 133//68 135//68 137//68 139//68 141//68 143//68 145//68 147//68 149//68 151//68 153//68 217//68 155//68 157//68 159//68 161//68 163//68 165//68 167//68 169//68 171//68 173//68 175//68 177//68 179//68 181//68 183//68
f 185//66 187//66 188//66 186//66
f 187//67 189//67 190//67 188//67
f 189//64 191//64 192//64 190//64
f 191//63 193//63 194//63 192//63
f 193//62 195//62 196//62 194//62
f 195//61 197//61 198//61 196//61
f 197//60 199//60 200//60 198//60
f 199//59 201//59 202//59 200//59
f 201//58 203//58 204//58 202//58
f 203//57 205//57 206//57 204//57
f 205//56 207//56 208//56 206//56
f 207//55 209//55 210//55 208//55
f 209//54 211//54 212//54 210//54
f 211//53 213//53 214//53 212//53
f 213//52 215//52 216//52 214//52
f 215//51 217//51 218//51 216//51
f 217//50 219//50 220//50 218//50
f 219//49 221//49 222//49 220//49
f 221//48 223//48 224//48 222//48
f 223//47 225//47 226//47 224//47
f 225//46 227//46 228//46 226//46
f 227//45 229//45 230//45 228//45
f 229//44 231//44 232//44 230//44
f 231//43 233//43 234//43 232//43
f 233//42 235//42 236//42 234//42
f 235//41 237//41 238//41 236//41
f 237//40 239//40 240//40 238//40
f 239//39 241//39 242//39 240//39
f 241//38 243//38 244//38 242//38
f 243//37 245//37 246//37 244//37
f 188//65 190//65 192//65 194//65 196//65 198//65 200//65 202//65 204//65 206//65 208//65 210//65 212//65 214//65 216//65 218//65 220//65 222//65 224//65 226//65 228//65 230//65 232//65 234//65 236//65 238//65 240//65 242//65 244//65 246//65 248//65 186//65
f 247//35 185//35 186//35 248//35
f 245//36 247//36 248//36 246//36
f 185//68 247//68 245//68 243//68 241//68 239//68 237//68 235//68 233//68 231//68 229//68 227//68 225//68 223//68 221//68 219//68 217//68 215//68 213//68 211//68 209//68 207//68 205//68 203//68 201//68 199//68 197//68 195//68 193//68 191//68 189//68 187//68
o Cylinder_Cylinder.001
v -0.392931 1.002060 -0.495398
v -0.392931 1.002060 0.495398
v -0.376072 0.996946 -0.495398
v -0.376072 0.996946 0.495398
v -0.360535 0.988641 -0.495398
v -0.360535 0.988641 0.495398
v -0.346916 0.977465 -0.495398
v -0.346916 0.977465 0.495398
v -0.335739 0.963846 -0.495398
v -0.335739 0.963846 0.495398
v -0.327435 0.948309 -0.495398
v -0.327435 0.948309 0.495398
v -0.322320 0.931450 -0.495398
v -0.322320 0.931450 0.495398
v -0.320594 0.913917 -0.495398
v -0.320594 0.913917 0.495398
v -0.322320 0.896384 -0.495398
v -0.322320 0.896384 0.495398
v -0.327435 0.879525 -0.495398
v -0.327435 0.879525 0.495398
v -0.335739 0.863988 -0.495398
v -0.335739 0.863988 0.495398
v -0.346916 0.850369 -0.495398
v -0.346916 0.850369 0.495398
v -0.360535 0.839193 -0.495398
v -0.360535 0.839193 0.495398
v -0.376072 0.830888 -0.495398
v -0.376072 0.830888 0.495398
v -0.392931 0.825774 -0.495398
v -0.392931 0.825774 0.495398
v -0.427996 0.825774 -0.495398
v -0.427996 0.825774 0.495398
v -0.444855 0.830888 -0.495398
v -0.444855 0.830888 0.495398
v -0.460393 0.839193 -0.495398
v -0.460393 0.839193 0.495398
v -0.474011 0.850369 -0.495398
v -0.474011 0.850369 0.495398
v -0.485188 0.863988 -0.495398
v -0.485188 0.863988 0.495398
v -0.493493 0.879525 -0.495398
v -0.493493 0.879525 0.495398
v -0.498607 0.896384 -0.495398
v -0.498607 0.896384 0.495398
v -0.500334 0.913917 -0.495398
v -0.500334 0.913917 0.495398
v -0.498607 0.931450 -0.495398
v -0.498607 0.931450 0.495398
v -0.493493 0.948309 -0.495398
v -0.493493 0.948309 0.495398
v -0.485188 0.963846 -0.495398
v -0.485188 0.963846 0.495398
v -0.474011 0.977465 -0.495398
v -0.474011 0.977465 0.495398
v -0.460393 0.988641 -0.495398
v -0.460393 0.988641 0.495398
v -0.444855 0.996946 -0.495398
v -0.444855 0.996946 0.495398
v -0.427996 1.002060 -0.495398
v -0.427996 1.002060 0.495398
v -0.410464 1.003787 -0.495398
v -0.410464 1.003787 0.495398
v -0.427996 1.002060 -0.495398
v -0.427996 1.002060 0.495398
v -0.444855 0.996946 -0.495398
v -0.444855 0.996946 0.495398
v -0.460393 0.988641 -0.495398
v -0.460393 0.988641 0.495398
v -0.474011 0.977465 -0.495398
v -0.474011 0.977465 0.495398
v -0.485188 0.963846 -0.495398
v -0.485188 0.963846 0.495398
v -0.493493 0.948309 -0.495398
v -0.493493 0.948309 0.495398
v -0.498607 0.931450 -0.495398
v -0.498607 0.931450 0.495398
v -0.500334 0.913917 -0.495398
v -0.500334 0.913917 0.495398
v -0.498607 0.896384 -0.495398
v -0.498607 0.896384 0.495398
v -0.493493 0.879525 -0.495398
v -0.493493 0.879525 0.495398
v -0.485188 0.863988 -0.495398
v -0.485188 0.863988 0.495398
v -0.474011 0.850369 -0.495398
v -0.474011 0.850369 0.495398
v -0.460393 0.839193 -0.495398
v -0.460393 0.839193 0.495398
v -0.444855 0.830888 -0.495398
v -0.444855 0.830888 0.495398
v -0.427996 0.825774 -0.495398
v -0.427996 0.825774 0.495398
v -0.410464 0.824047 -0.495398
v -0.410464 0.824047 0.495398
v -0.392931 0.825774 -0.495398
v -0.392931 0.825774 0.495398
v -0.376072 0.830888 -0.495398
v -0.376072 0.830888 0.495398
v -0.360534 0.839193 -0.495398
v -0.360534 0.839193 0.495398
v -0.346916 0.850369 -0.495398
v -0.346916 0.850369 0.495398
v -0.335739 0.863988 -0.495398
v -0.335739 0.863988 0.495398
v -0.327435 0.879525 -0.495398
v -0.327435 0.879525 0.495398
v -0.322320 0.896384 -0.495398
v -0.322320 0.896384 0.495398
v -0.320594 0.913917 -0.495398
v -0.320594 0.913917 0.495398
v -0.322320 0.931450 -0.495398
v -0.322320 0.931450 0.495398
v -0.327435 0.948309 -0.495398
v -0.327435 0.948309 0.495398
v -0.335739 0.963846 -0.495398
v -0.335739 0.963846 0.495398
v -0.346916 0.977465 -0.495398
v -0.346916 0.977465 0.495398
v -0.360535 0.988641 -0.495398
v -0.360535 0.988641 0.495398
v -0.376072 0.996946 -0.495398
v -0.376072 0.996946 0.495398
v -0.392931 1.002060 -0.495398
v -0.392931 1.002060 0.495398
vn 0.098000 0.995200 -0.000000
vn 0.290300 0.956900 -0.000000
vn 0.471400 0.881900 -0.000000
vn 0.634400 0.773000 -0.000000
vn 0.773000 0.634400 -0.000000
vn 0.881900 0.471400 -0.000000
vn 0.956900 0.290300 0.000000
vn 0.995200 0.098000 -0.000000
vn 0.995200 -0.098000 0.000000
vn 0.956900 -0.290300 0.000000
vn 0.881900 -0.471400 0.000000
vn 0.773000 -0.634400 0.000000
vn 0.634400 -0.773000 0.000000
vn 0.471400 -0.881900 0.000000
vn 0.290300 -0.956900 0.000000
vn 0.098000 -0.995200 0.000000
vn -0.098000 -0.995200 0.000000
vn -0.290300 -0.956900 0.000000
vn -0.471400 -0.881900 0.000000
vn -0.634400 -0.773000 0.000000
vn -0.773000 -0.634400 0.000000
vn -0.881900 -0.471400 0.000000
vn -0.956900 -0.290300 0.000000
vn -0.995200 -0.098000 0.000000
vn -0.995200 0.098000 -0.000000
vn -0.956900 0.290300 0.000000
vn -0.881900 0.471400 0.000000
vn -0.773000 0.634400 -0.000000
vn -0.634400 0.773000 -0.000000
vn -0.471400 0.881900 -0.000000
vn -0.000000 0.000000 1.000000
vn -0.098000 0.995200 -0.000000
vn -0.290300 0.956900 -0.000000
vn 0.000000 0.000000 -1.000000
usemtl None
s off
f 309//69 310//69 250//69 249//69
f 249//70 250//70 252//70 251//70
f 251//71 252//71 254//71 253//71
f 253//72 254//72 256//72 255//72
f 255//73 256//73 258//73 257//73
f 257//74 258//74 260//74 259//74
f 259//75 260//75 262//75 261//75
f 261//76 262//76 264//76 263//76
f 263//77 264//77 266//77 265//77
f 265//78 266//78 268//78 267//78
f 267//79 268//79 270//79 269//79
f 269//80 270//80 272//80 271//80
f 271//81 272//81 274//81 273//81
f 273//82 274//82 276//82 275//82
f 275//83 276//83 278//83 277//83
f 277//84 278//84 342//84 341//84
f 341//85 342//85 280//85 279//85
f 279//86 280//86 282//86 281//86
f 281//87 282//87 284//87 283//87
f 283//88 284//88 286//88 285//88
f 285//89 286//89 288//89 287//89
f 287//90 288//90 290//90 289//90
f 289//91 290//91 292//91 291//91
f 291//92 292//92 294//92 293//92
f 293//93 294//93 296//93 295//93
f 295//94 296//94 298//94 297//94
f 297//95 298//95 300//95 299//95
f 299//96 300//96 302//96 301//96
f 301//97 302//97 304//97 303//97
f 303//98 304//98 306//98 305//98
f 250//99 310//99 308//99 306//99 304//99 302//99 300//99 298//99 296//99 294//99 292//99 290//99 288//99 286//99 284//99 282//99 280//99 342//99 278//99 276//99 274//99 272//99 270//99 268//99 266//99 264//99 262//99 260//99 258//99 256//99 254//99 252//99
f 307//100 308//100 310//100 309//100
f 305//101 306//101 308//101 307//101
f 309//102 249//102 251//102 253//102 255//102 257//102 259//102 261//102 263//102 265//102 267//102 269//102 271//102 273//102 275//102 277//102 341//102 279//102 281//102 283//102 285//102 287//102 289//102 291//102 293//102 295//102 297//102 299//102 301//102 303//102 305//102 307//102
f 309//100 311//100 312//100 310//100
f 311//101 313//101 314//101 312//101
f 313//98 315//98 316//98 314//98
f 315//97 317//97 318//97 316//97
f 317//96 319//96 320//96 318//96
f 319//95 321//95 322//95 320//95
f 321//94 323//94 324//94 322//94
f 323//93 325//93 326//93 324//93
f 325//92 327//92 328//92 326//92
f 327//91 329//91 330//91 328//91
f 329//90 331//90 332//90 330//90
f 331//89 333//89 334//89 332//89
f 333//88 335//88 336//88 334//88
f 335//87 337//87 338//87 336//87
f 337//86 339//86 340//86 338//86
f 339//85 341//85 342//85 340//85
f 341//84 343//84 344//84 342//84
f 343//83 345//83 346//83 344//83
f 345//82 347//82 348//82 346//82
f 347//81 349//81 350//81 348//81
f 349//80 351//80 352//80 350//80
f 351//79 353//79 354//79 352//79
f 353//78 355//78 356//78 354//78
f 355//77 357//77 358//77 356//77
f 357//76 359//76 360//76 358//76
f 359//75 361//75 362//75 360//75
f 361//74 363//74 364//74 362//74
f 363//73 365//73 366//73 364//73
f 365//72 367//72 368//72 366//72
f 367//71 369//71 370//71 368//71
f 312//99 314//99 316//99 318//99 320//99 322//99 324//99 326//99 328//99 330//99 332//99 334//99 336//99 338//99 340//99 342//99 344//99 346//99 348//99 350//99 352//99 354//99 356//99 358//99 360//99 362//99 364//99 366//99 368//99 370//99 372//99 310//99
f 371//69 309//69 310//69 372//69
f 369//70 371//70 372//70 370//70
f 309//102 371//102 369//102 367//102 365//102 363//102 361//102 359//102 357//102 355//102 353//102 351//102 349//102 347//102 345//102 343//102 341//102 339//102 337//102 335//102 333//102 331//102 329//102 327//102 325//102 323//102 321//102 319//102 317//102 315//102 313//102 311//102
